<svg xmlns="http://www.w3.org/2000/svg" width="512.013" height="512" viewBox="0 0 512.013 512">
  <path id="sun-regular" d="M505.2,324.8l-47.73-68.78,47.75-68.81a37.832,37.832,0,0,0-24.376-58.78l-82.39-14.88-14.89-82.41a37.837,37.837,0,0,0-58.81-24.376L256,54.49,187.2,6.709a37.869,37.869,0,0,0-58.8,24.377l-14.89,82.44L31.15,128.4A37.847,37.847,0,0,0,6.775,187.2l47.73,68.78L6.755,324.79a37.832,37.832,0,0,0,24.376,58.78l82.39,14.88,14.89,82.41a37.829,37.829,0,0,0,58.79,24.376L256,457.5l68.83,47.78a37.763,37.763,0,0,0,36.03,3.814,37.712,37.712,0,0,0,22.7-28.19l14.89-82.44,82.37-14.88A37.819,37.819,0,0,0,505.2,324.8Zm-48.4,14.4-99.61,18-18,99.63L256,399.1l-83.2,57.7-18-99.63-99.61-18L112.9,255.1,55.23,172.8l99.61-18,18-99.63L256,112.9l83.15-57.75,18.02,99.66,99.61,18L399.1,255.1ZM256,143.1a111.1,111.1,0,0,0,0,222.2c60.95,0,111.1-50.14,111.1-111.1C367.1,194.1,317.8,143.1,256,143.1Zm0,176a64.068,64.068,0,0,1-63.99-63.99C192.01,219.83,220.7,192,256,192s63.99,28.71,63.99,63.1S291.3,319.1,256,319.1Z" transform="translate(0 0)" fill="#fff"/>
</svg>
